<svg id="Layer_1" viewBox="0 0 24 24" xmlns="http://www.w3.org/2000/svg" data-name="Layer 1"><path d="m12.919 12.874c.469-.465 1.04-.902 1.735-.874.627 0 2.267.628 3.152 1h6.193v-1h-5v-7.5c0-1.378-1.121-2.5-2.5-2.5h-1.5v-.5c0-.827-.673-1.5-1.5-1.5h-3c-.827 0-1.5.673-1.5 1.5v.5h-1.5c-1.379 0-2.5 1.122-2.5 2.5v7.5h-4.999v1h6.118c.762-.387 2.189-.994 2.882-1 .496 0 .972.184 1.338.518l.809.737-2.097 2.073c-.584.584-.584 1.536 0 2.121.586.586 1.539.584 2.125-.002l1.597-1.622 4.301 3.862-4.244 3.312h-1.656l-5.125-4h-6.048v1h5.703l5.125 4h2.344l5.125-4h5.703v-1h-6.197l-5.074-4.556-2.264 2.299c-.194.194-.512.196-.708 0-.194-.195-.194-.513 0-.708l3.162-3.162zm-2.919-11.374c0-.276.225-.5.5-.5h3c.275 0 .5.224.5.5v.5h-4zm-4 3c0-.827.673-1.5 1.5-1.5h9c.827 0 1.5.673 1.5 1.5v1.5h-12zm5.012 7.279c-.552-.502-1.267-.779-2.035-.779-.901 0-2.402.672-2.977.945v-4.945h5.5v2h1v-2h5.5v4.96c-.611-.248-2.44-.96-3.346-.96-.765 0-1.492.289-2.038.803l-.765.741-.84-.765z"/></svg>