<?xml version="1.0" encoding="UTF-8"?>
<svg xmlns="http://www.w3.org/2000/svg" id="Layer_1" data-name="Layer 1" viewBox="0 0 24 24">
  <path d="m24,1V0h-14.221c-1.572,0-3.128.322-4.57.947l-3.706,1.605c-.587.25-1.067.743-1.318,1.353-.252.619-.246,1.298.014,1.911.26.614.743,1.092,1.362,1.345.297.121.611.183.934.183.096,0,.189-.018.284-.029l-1.409,1.88c-.35.573-.456,1.245-.299,1.89.156.652.93,1.913,2.417,1.913.513,0,1.244-.304,1.513-.503v.005c0,.977.547,1.909,1.449,2.284,1.811.752,3.551-.567,3.551-2.284v-5c0-.827.673-1.5,1.5-1.5s1.5.673,1.5,1.5c0,.861-.971,1.579-1.547,1.929-1.413.85-1.875,2.693-1.03,4.108.538.902,1.525,1.463,2.578,1.463.542,0,1.073-.147,1.536-.424.384-.229,2.358-1.474,3.549-3.464.164-.273.893-1.559,1.206-2.112h4.708v-1h-5.292s-1.271,2.251-1.479,2.599c-1.091,1.822-2.991,2.991-3.205,3.119-1.216.726-3.113-.1-2.993-1.806.048-.689.453-1.32,1.038-1.687,1.644-1.033,2.279-2.313,1.748-3.628-.311-.771-.993-1.384-1.809-1.545-1.6-.316-3.007.906-3.007,2.45v4.952c0,.788-.591,1.483-1.377,1.544-.883.068-1.623-.568-1.623-2.7v-4.795c0-3.038,2.462-5.5,5.5-5.5h12.5ZM5,6.5v4.452l-.228.344c-.195.32-.54.565-.922.658-.163.039-.329.052-.491.039-.229-.02-.445-.092-.646-.215-.339-.206-.577-.535-.672-.927-.094-.387-.029-.789.154-1.094l2.83-3.774c-.014.172-.026.344-.026.518Zm1.437-4.068l-2.572,3.432-.766.355c-.377.161-.796.166-1.161.017-.372-.152-.662-.439-.819-.81-.156-.367-.159-.773-.009-1.143.15-.367.437-.663.787-.812l3.709-1.606c.694-.3,1.41-.519,2.141-.663-.491.349-.933.762-1.31,1.231h0Zm6.563,13.568h-6c-1.103,0-2,.897-2,2v6h10v-6c0-1.103-.897-2-2-2Zm1,7H6v-5c0-.551.448-1,1-1h6c.552,0,1,.449,1,1v5Zm-5.5-4h3v1h-3v-1Z"/>
</svg>
