<?xml version="1.0" encoding="UTF-8"?>
<svg xmlns="http://www.w3.org/2000/svg" id="Layer_1" data-name="Layer 1" viewBox="0 0 24 24">
  <path d="M24,2.5v7c0,1.378-1.121,2.5-2.5,2.5h-7.857c-1.457,0-2.643-1.185-2.643-2.642,0-1.306,.975-2.431,2.269-2.616l5.667-.738,.129,.991-5.661,.737c-.797,.114-1.403,.813-1.403,1.625,0,.905,.737,1.642,1.643,1.642h7.857c.827,0,1.5-.673,1.5-1.5V2.5c0-.827-.673-1.5-1.5-1.5H11.863l-5.055,3.244c-.418-.112-.851-.186-1.297-.219L11.5,0h10c1.379,0,2.5,1.122,2.5,2.5ZM5,9c-.552,0-1,.448-1,1s.448,1,1,1,1-.448,1-1-.448-1-1-1Zm5,2c0,1.79-.95,3.415-2.5,4.31v6.204l-2.5,2.501-2.475-2.474,1.415-1.415-1.414-1.415,1.051-1.051-1.076-1.019v-1.332c-1.55-.896-2.5-2.52-2.5-4.31,0-2.757,2.243-5,5-5s5,2.243,5,5Zm-1,0c0-2.206-1.794-4-4-4S1,8.794,1,11c-.011,1.625,1.001,3.059,2.5,3.703v1.508l1.51,1.43-1.07,1.07,1.414,1.415-1.415,1.415,1.061,1.06,1.5-1.501v-6.397c1.499-.644,2.511-2.077,2.5-3.703Z"/>
</svg>
